<svg width="150" height="50" xmlns="http://www.w3.org/2000/svg" xmlns:svg="http://www.w3.org/2000/svg">
 <g class="layer">
  <title>Layer 1</title>
  <path d="m9.53,44.33c-0.16,0 -0.32,-0.03 -0.46,-0.11c-0.3,-0.15 -0.5,-0.44 -0.53,-0.77l-3.66,-30.76c-0.05,-0.4 0.16,-0.8 0.52,-0.99l8.62,-4.7c0.14,-0.08 0.29,-0.12 0.44,-0.12l24.54,-0.88c0.52,-0.05 0.97,0.36 1.03,0.87c0.12,0.93 2.89,22.87 2.7,32.35c-0.01,0.34 -0.19,0.65 -0.48,0.83c-0.28,0.18 -0.64,0.2 -0.95,0.05l-3.38,-1.6l-2.58,2.73c-0.28,0.31 -0.73,0.4 -1.12,0.24l-4.11,-1.77l-3.08,2.83c-0.31,0.29 -0.76,0.35 -1.14,0.16l-3.87,-1.98l-3.24,3.15c-0.3,0.29 -0.76,0.37 -1.14,0.18l-3.86,-1.89l-3.77,2.06c-0.15,0.08 -0.32,0.12 -0.48,0.12zm4.23,-4.3c0.15,0 0.3,0.03 0.44,0.1l3.69,1.8l3.24,-3.16c0.31,-0.3 0.77,-0.37 1.16,-0.17l3.89,1.99l3.05,-2.8c0.29,-0.27 0.71,-0.34 1.07,-0.18l4.07,1.74l2.59,-2.76c0.3,-0.31 0.77,-0.4 1.16,-0.21l2.62,1.24c-0.1,-8.84 -2.08,-25.53 -2.58,-29.59l-23.39,0.84l-7.82,4.26l3.4,28.62l2.93,-1.6c0.15,-0.08 0.31,-0.12 0.48,-0.12z" fill="#ff0000" id="svg_1"/>
  <path d="m17.2,43.16l-3.23,-30.28l-1.83,6.05c-0.11,0.35 -0.39,0.61 -0.75,0.69c-0.35,0.07 -0.72,-0.04 -0.96,-0.31l-5.09,-5.77l1.49,-1.33l3.91,4.43l2.75,-9.05c0.14,-0.46 0.58,-0.77 1.05,-0.71c0.48,0.05 0.85,0.42 0.9,0.89l3.75,35.18l-1.99,0.21z" fill="#ff0000" id="svg_2"/>
  <rect fill="#ff0000" height="22.46" id="svg_3" transform="rotate(-6.88 12.52 29.79)" width="2" x="11.52" y="18.56"/>
  <circle cx="34" cy="24" fill="#ff0000" id="svg_4" r="2"/>
  <circle cx="23" cy="26" fill="#ff0000" id="svg_5" r="2"/>
  <path d="m24.75,31.05c-0.31,-0.52 0.18,-1.15 0.76,-0.99c0.81,0.21 2.04,0.42 3.68,0.37c1.89,-0.06 3.51,-0.87 4.51,-1.52c0.53,-0.34 1.23,0.18 1.01,0.78c-0.28,0.77 -0.99,1.75 -2.64,2.75c0,0 -2.5,1.25 -5.57,0c-0.94,-0.37 -1.46,-0.9 -1.75,-1.39z" fill="#ff0000" id="svg_6"/>
  <text fill="#ff0000" font-family="Monospace" font-size="24" font-weight="bold" id="svg_7" stroke-width="0" text-anchor="middle" x="97" xml:space="preserve" y="31">Turismo</text>
 </g>
</svg>